<?xml version="1.0" standalone="no"?><!DOCTYPE svg PUBLIC "-//W3C//DTD SVG 1.1//EN" "http://www.w3.org/Graphics/SVG/1.1/DTD/svg11.dtd"><svg class="icon" width="200px" height="200.00px" viewBox="0 0 1024 1024" version="1.1" xmlns="http://www.w3.org/2000/svg"><path d="M297.204053 976.896A195.047619 195.047619 0 0 0 33.402149 694.247619 510.829714 510.829714 0 0 1 0.000244 512C0.000244 229.229714 229.229958 0 512.000244 0s512 229.229714 512 512-229.229714 512-512 512c-76.702476 0-149.455238-16.871619-214.796191-47.104z" fill="#1973ED" /><path d="M146.285958 853.333333m-146.285714 0a146.285714 146.285714 0 1 0 292.571428 0 146.285714 146.285714 0 1 0-292.571428 0Z" fill="#8EB9F4" /><path d="M427.544625 610.377143c70.802286 70.826667 147.431619 24.966095 195.900952-23.503238L451.047863 414.47619c-48.469333 48.469333-94.354286 125.074286-23.503238 195.900953z m-68.973715 68.973714c-107.958857-107.983238-75.751619-234.569143 23.503239-333.824l68.973714-68.973714 310.320762 310.320762-68.973715 68.949333c-99.230476 99.254857-225.840762 131.486476-333.824 23.527619z" fill="#FFFFFF" /><path d="M706.682149 252.050286l68.949333 68.973714-68.949333 68.949333-68.973715-68.949333z" fill="#FFFFFF" /></svg>